<svg version="1.1" xmlns="http://www.w3.org/2000/svg" xmlns:xlink="http://www.w3.org/1999/xlink" width="24" height="24" viewBox="0 0 24 24"><g id="icon_imageNotFou"><path id="icon_imageNotFou" d="M1.000,20.000 L1.000,4.000 L23.000,4.000 L23.000,20.000 L1.000,20.000 zM22.000,5.000 L2.000,5.000 L2.000,19.000 L22.000,19.000 L22.000,5.000 zM10.949,17.000 L15.974,7.974 L21.000,18.000 L2.974,18.000 L7.000,12.000 L10.949,17.000 zM10.000,11.000 C8.895,11.000 8.000,10.105 8.000,9.000 C8.000,7.895 8.895,7.000 10.000,7.000 C11.105,7.000 12.000,7.895 12.000,9.000 C12.000,10.105 11.105,11.000 10.000,11.000 z" fill="#cccccc" /></g></svg>